General
Complete name                    : Det som ingen ved.mkv
Format                           : Matroska
File size                        : 1.86 GiB
Duration                         : 1h 34mn
Overall bit rate                 : 2 815 Kbps


Video
ID                               : 1
Format                           : AVC
Duration                         : 1h 34mn
Bit rate                         : 2 005 Kbps
Nominal bit rate                 : 2 039 Kbps
Width                            : 720 pixels
Height                           : 436 pixels
Display aspect ratio             : 2.35:1
Frame rate                       : 25.000 fps
Resolution                       : 8 bits
Colorimetry                      : 4:2:0
Scan type                        : Progressive
Bits/(Pixel*Frame)               : 0.255
Stream size                      : 1.32 GiB (71%)
Writing library                  : x264 core 79

Audio
ID                               : 2
Format                           : DTS
Format/Info                      : Digital Theater Systems
Codec ID                         : A_DTS
Duration                         : 1h 34mn
Bit rate mode                    : Constant
Bit rate                         : 755 Kbps
Channel(s)                       : 6 channels
Channel positions                : Front: L C R, Surround: L R, LFE
Sampling rate                    : 48.0 KHz
Resolution                       : 16 bits
Stream size                      : 510 MiB (27%)
Language                         : Danish


Text #2
Language                         : Danish

Text #3
Language                         : Swedish

Text #4
Language                         : Norwegian

